#!OML:ASF E:\Steps\Project 1\Capture day 1\Session 2\Subject.ASF
:FULLY-SPECIFIED
:DEGREES
290
root 9.0781 15.4264 11.0063 -134.379 5.47938 -181.977
lowerback -13.2335 -2.11659 -4.40259
upperback -1.9061 -1.94853 -0.0761642
thorax 5.5591 -0.947022 2.06607
lowerneck 31.074 -8.22786 14.3667
upperneck -43.6575 -5.72122 -8.73592
head -28.3907 -2.34184 -7.41105
rclavicle -1.31198e-014 8.74653e-015
rhumerus -66.8496 5.65906 -76.0141
rradius 60.7101
rwrist -9.89981
rhand -7.92623 -44.2112
rfingers 7.12502
rthumb 17.9798 -73.4001
lclavicle -1.31198e-014 8.74653e-015
lhumerus -67.6147 -29.3638 75.45
lradius 54.8192
lwrist 11.151
lhand -28.5809 -21.5463
lfingers 7.12502
lthumb -1.94694 8.42452
rfemur -71.4886 5.42875 14.2211
rtibia 48.0858
rfoot -31.9275 -17.586
rtoes -34.9295
lfemur -72.2042 -4.6758 -16.0987
ltibia 49.0686
lfoot -19.8062 0.189574
ltoes -41.118
291
root 9.07773 15.2891 11.0167 -134.468 5.87201 -181.775
lowerback -12.6447 -1.95099 -4.36162
upperback -1.60834 -1.79332 -0.106408
thorax 5.53404 -0.890539 2.04718
lowerneck 30.9813 -8.21422 14.3225
upperneck -43.8568 -5.68257 -8.74118
head -28.6288 -2.31466 -7.48695
rclavicle -1.47101e-014 -1.51076e-014
rhumerus -66.8661 5.45925 -75.9761
rradius 61.5048
rwrist -10.278
rhand -7.69062 -44.2687
rfingers 7.12502
rthumb 18.2065 -73.4367
lclavicle -1.47101e-014 -1.51076e-014
lhumerus -68.256 -29.1065 75.2721
lradius 55.7172
lwrist 11.1929
lhand -28.5604 -22.3024
lfingers 7.12502
lthumb -1.92719 7.66868
rfemur -72.5264 5.65424 14.4398
rtibia 49.9667
rfoot -32.6085 -17.5159
rtoes -34.665
lfemur -73.1868 -4.00294 -16.5112
ltibia 51.1357
lfoot -20.5294 -0.164458
ltoes -40.3135
292
root 9.07594 15.1481 11.0215 -134.828 6.21078 -181.645
lowerback -11.8514 -1.81436 -4.34824
upperback -1.30686 -1.68432 -0.11133
thorax 5.40269 -0.855624 2.06519
lowerneck 31.328 -8.2598 13.9423
upperneck -44.523 -5.28675 -7.74928
head -29.4693 -2.23809 -7.03389
rclavicle 2.18663e-015 -3.18055e-015
rhumerus -67.0286 5.30304 -75.8817
rradius 62.4772
rwrist -10.7091
rhand -7.50099 -43.968
rfingers 7.12502
rthumb 18.3889 -73.1189
lclavicle 2.18663e-015 -3.18055e-015
lhumerus -69.0869 -28.7231 75.1576
lradius 56.7017
lwrist 11.0099
lhand -28.531 -22.7591
lfingers 7.12502
lthumb -1.8988 7.21218
rfemur -73.2288 5.99018 14.4484
rtibia 51.8845
rfoot -33.4683 -17.1705
rtoes -33.1406
lfemur -73.9057 -3.50059 -16.9172
ltibia 53.2369
lfoot -21.2839 -0.544286
ltoes -38.8156
293
root 9.08839 14.9959 11.1002 -133.328 6.18492 -181.886
lowerback -12.1484 -2.05729 -4.67881
upperback -1.72926 -1.92809 -0.00376698
thorax 5.15478 -0.955537 2.32393
lowerneck 31.6506 -8.2361 13.652
upperneck -44.8613 -5.14025 -7.45408
head -30.0995 -2.18157 -6.94001
rclavicle -1.68967e-014 7.95139e-015
rhumerus -67.1437 5.28721 -75.9066
rradius 63.3439
rwrist -11.0771
rhand -7.47268 -43.4331
rfingers 7.12502
rthumb 18.4162 -72.5813
lclavicle -1.68967e-014 7.95139e-015
lhumerus -69.9496 -28.3864 75.0937
lradius 57.6126
lwrist 10.7752
lhand -28.5455 -22.9449
lfingers 7.12502
lthumb -1.91274 7.02632
rfemur -76.6768 5.79335 14.0615
rtibia 54.6586
rfoot -34.2535 -17.1571
rtoes -31.5301
lfemur -77.3934 -3.07787 -17.402
ltibia 56.104
lfoot -21.9082 -0.840677
ltoes -39.5316
294
root 9.09313 14.8465 11.1338 -133.122 6.45506 -181.852
lowerback -11.5122 -2.0728 -4.8242
upperback -1.62826 -1.98105 -0.00699868
thorax 4.9168 -0.989483 2.40714
lowerneck 31.7157 -8.17234 13.4578
upperneck -45.2822 -4.78832 -7.04403
head -30.6625 -2.07904 -6.85937
rclavicle 1.11319e-014 -2.46493e-014
rhumerus -66.904 5.2359 -76.0197
rradius 64.0586
rwrist -11.253
rhand -7.55261 -43.329
rfingers 7.12502
rthumb 18.3393 -72.4845
lclavicle 1.11319e-014 -2.46493e-014
lhumerus -70.4918 -27.9735 74.8403
lradius 58.4285
lwrist 10.7927
lhand -28.8703 -23.5246
lfingers 7.12502
lthumb -2.22645 6.44348
rfemur -78.3429 6.04207 13.9071
rtibia 56.9019
rfoot -34.8878 -17.2109
rtoes -30.2834
lfemur -78.9344 -2.52952 -17.9071
ltibia 58.271
lfoot -22.5694 -0.392556
ltoes -42.6632
295
root 9.09904 14.6912 11.169 -132.801 6.70657 -181.848
lowerback -10.9855 -2.08978 -4.95785
upperback -1.57919 -2.02794 -0.00893134
thorax 4.6839 -1.01631 2.48518
lowerneck 31.7867 -8.11381 13.2238
upperneck -45.8401 -4.20321 -6.26041
head -31.3718 -1.93185 -6.60695
rclavicle -6.16232e-015 3.18055e-015
rhumerus -66.6786 5.0267 -76.0001
rradius 64.854
rwrist -11.2894
rhand -7.64814 -43.1811
rfingers 7.12502
rthumb 18.2474 -72.3452
lclavicle -6.16232e-015 3.18055e-015
lhumerus -70.9838 -27.3495 74.5093
lradius 59.2721
lwrist 10.7676
lhand -29.3226 -24.1459
lfingers 7.12502
lthumb -2.66331 5.81721
rfemur -80.1948 6.30714 13.6713
rtibia 59.2218
rfoot -35.4832 -17.383
rtoes -29.3852
lfemur -80.714 -2.03578 -18.4114
ltibia 60.6256
lfoot -23.3683 -0.339732
ltoes -43.5642
296
root 9.10369 14.5258 11.2026 -132.326 6.85776 -181.833
lowerback -10.612 -2.10698 -4.96372
upperback -1.58616 -2.07892 0.00596085
thorax 4.47375 -1.03993 2.50611
lowerneck 32.0171 -8.05731 12.8215
upperneck -46.1614 -3.86843 -5.67534
head -32.1559 -1.81785 -6.36587
rclavicle -1.19271e-015 2.38542e-015
rhumerus -66.3515 4.65517 -75.926
rradius 65.559
rwrist -11.2601
rhand -7.63445 -42.716
rfingers 7.12502
rthumb 18.2605 -71.8789
lclavicle -1.19271e-015 2.38542e-015
lhumerus -71.2812 -26.5994 73.9857
lradius 60.0661
lwrist 10.4652
lhand -29.8025 -24.8186
lfingers 7.12502
lthumb -3.12677 5.13819
rfemur -82.2241 6.48431 13.4976
rtibia 61.6389
rfoot -36.4373 -17.0335
rtoes -28.0844
lfemur -82.732 -1.66851 -18.7741
ltibia 63.1231
lfoot -24.2339 -0.721687
ltoes -42.0994
297
root 9.1066 14.3593 11.2164 -132.289 7.07223 -181.709
lowerback -10.0046 -2.05273 -4.89968
upperback -1.39202 -2.06569 -0.00759509
thorax 4.33487 -1.04294 2.47028
lowerneck 29.6324 -7.08799 13.5766
upperneck -46.8145 -2.95536 -9.13292
head -32.3181 -1.2768 -9.83231
rclavicle 9.93923e-015 1.51076e-014
rhumerus -65.7397 4.20967 -75.9188
rradius 66.047
rwrist -11.1978
rhand -7.90837 -42.0021
rfingers 7.12502
rthumb 17.997 -71.1894
lclavicle 9.93923e-015 1.51076e-014
lhumerus -71.341 -25.9333 73.3407
lradius 60.9023
lwrist 10.3921
lhand -30.2863 -25.5542
lfingers 7.12502
lthumb -3.59394 4.39527
rfemur -83.6209 6.81277 13.4783
rtibia 63.8461
rfoot -37.3678 -16.643
rtoes -27.1986
lfemur -84.0938 -1.24184 -19.1025
ltibia 65.4284
lfoot -25.1052 -0.982929
ltoes -40.885
298
root 9.11339 14.1937 11.2409 -131.821 7.29797 -181.621
lowerback -9.77763 -2.08138 -4.97574
upperback -1.33338 -2.1144 0.00332047
thorax 4.27683 -1.07118 2.52252
lowerneck 28.5174 -7.25525 15.657
upperneck -46.5723 -3.02036 -11.514
head -32.4079 -1.59248 -12.281
rclavicle 8.74653e-015 3.97569e-015
rhumerus -64.9629 3.79166 -75.9746
rradius 66.4266
rwrist -11.1944
rhand -8.44691 -41.2484
rfingers 7.12502
rthumb 17.4788 -70.4826
lclavicle 8.74653e-015 3.97569e-015
lhumerus -71.396 -25.2576 72.7212
lradius 61.9246
lwrist 10.5386
lhand -30.7148 -26.1412
lfingers 7.12502
lthumb -4.00772 3.80084
rfemur -85.5583 7.09656 13.3486
rtibia 65.9914
rfoot -37.9305 -16.8015
rtoes -27.3632
lfemur -85.9897 -0.753604 -19.522
ltibia 67.855
lfoot -26.0105 -1.25046
ltoes -39.4945
299
root 9.11911 14.0285 11.2528 -131.629 7.56403 -181.482
lowerback -9.35845 -2.07715 -4.98487
upperback -1.19294 -2.14072 -0.0193397
thorax 4.19135 -1.09089 2.50926
lowerneck 27.7894 -7.09957 16.13
upperneck -46.7578 -2.6311 -11.9812
head -32.2327 -1.50288 -12.9315
rclavicle 8.74653e-015 3.06128e-014
rhumerus -63.9944 3.31595 -76.1065
rradius 66.6607
rwrist -11.2261
rhand -8.63879 -40.5571
rfingers 7.12502
rthumb 17.2941 -69.8076
lclavicle 8.74653e-015 3.06128e-014
lhumerus -71.3613 -24.3544 71.9856
lradius 62.9615
lwrist 10.5022
lhand -31.1589 -26.8008
lfingers 7.12502
lthumb -4.43662 3.13278
rfemur -87.0152 7.43928 13.2874
rtibia 67.9162
rfoot -38.5424 -16.8333
rtoes -27.4535
lfemur -87.3277 -0.269164 -19.8785
ltibia 69.9624
lfoot -26.8548 -1.38498
ltoes -38.2025
300
root 9.12159 13.8625 11.2624 -131.482 7.81523 -181.376
lowerback -8.87461 -2.08279 -4.90345
upperback -1.12184 -2.18953 -0.0676438
thorax 3.99437 -1.11468 2.41923
lowerneck 28.8338 -6.96891 14.0971
upperneck -47.4621 -2.16745 -9.46705
head -33.2863 -1.16977 -10.8889
rclavicle 1.15295e-014 -6.75868e-015
rhumerus -62.9313 2.75838 -76.23
rradius 66.7359
rwrist -11.1529
rhand -8.55545 -39.4011
rfingers 7.12502
rthumb 17.3743 -68.6446
lclavicle 1.15295e-014 -6.75868e-015
lhumerus -71.2304 -23.3707 71.2419
lradius 63.7401
lwrist 10.4184
lhand -31.7219 -27.5817
lfingers 7.12502
lthumb -4.98024 2.33982
rfemur -88.3656 7.70167 13.2542
rtibia 69.8565
rfoot -39.2905 -16.6256
rtoes -27.3115
lfemur -88.5663 0.096348 -20.1994
ltibia 71.9528
lfoot -27.5481 -1.31921
ltoes -37.908
301
root 9.11933 13.6999 11.2727 -131.328 8.1558 -181.308
lowerback -8.3471 -2.11613 -4.87239
upperback -1.16049 -2.27132 -0.0897451
thorax 3.66392 -1.14894 2.38514
lowerneck 28.7914 -6.91114 14.4542
upperneck -47.6076 -1.91037 -9.89814
head -33.6263 -1.1876 -11.5323
rclavicle 1.82882e-014 -1.23246e-014
rhumerus -61.77 2.20768 -76.2439
rradius 66.6501
rwrist -10.9609
rhand -8.87233 -37.9503
rfingers 7.12502
rthumb 17.0693 -67.2205
lclavicle 1.82882e-014 -1.23246e-014
lhumerus -71.1523 -22.3553 70.6365
lradius 64.4565
lwrist 10.3526
lhand -32.2565 -28.1735
lfingers 7.12502
lthumb -5.49634 1.73522
rfemur -89.6945 7.93501 13.1017
rtibia 71.6993
rfoot -40.0757 -16.2251
rtoes -26.5012
lfemur -89.9458 0.445739 -20.6625
ltibia 74.0623
lfoot -28.1513 -1.10149
ltoes -37.5609
